<svg xmlns="http://www.w3.org/2000/svg" width="120" height="120" fill="none" viewBox="0 0 120 120"><defs><linearGradient id="entityGrad" x1="0%" x2="100%" y1="0%" y2="100%"><stop offset="0%" style="stop-color:#ff6b6b"/><stop offset="50%" style="stop-color:#bd34fe"/><stop offset="100%" style="stop-color:#41d1ff"/></linearGradient><linearGradient id="coreGrad" x1="0%" x2="100%" y1="0%" y2="100%"><stop offset="0%" style="stop-color:#ffe066"/><stop offset="100%" style="stop-color:#ff9f43"/></linearGradient><filter id="entityGlow" width="200%" height="200%" x="-50%" y="-50%"><feGaussianBlur result="coloredBlur" stdDeviation="4"/><feMerge><feMergeNode in="coloredBlur"/><feMergeNode in="SourceGraphic"/></feMerge></filter></defs><circle cx="60" cy="60" r="18" fill="#1a1a1a" stroke="url(#coreGrad)" stroke-width="2.5" filter="url(#entityGlow)"/><text x="60" y="57" fill="url(#coreGrad)" font-family="system-ui, sans-serif" font-size="8" font-weight="bold" text-anchor="middle">Entity</text><text x="60" y="67" fill="#888" font-family="system-ui, sans-serif" font-size="6" text-anchor="middle">Builder</text><path stroke="url(#entityGrad)" stroke-width="1.5" d="M60 38q15-8 18 7" opacity=".6"/><path fill="url(#entityGrad)" d="m78 45 3-5-5 2z" opacity=".6"/><circle cx="60" cy="18" r="10" fill="#1e1e1e" stroke="#41d1ff" stroke-width="1.5"/><text x="60" y="21" fill="#41d1ff" font-family="system-ui, sans-serif" font-size="6" text-anchor="middle">Doc</text><circle cx="95" cy="60" r="10" fill="#1e1e1e" stroke="#bd34fe" stroke-width="1.5"/><text x="95" y="63" fill="#bd34fe" font-family="system-ui, sans-serif" font-size="6" text-anchor="middle">API</text><circle cx="60" cy="102" r="10" fill="#1e1e1e" stroke="#ff6b6b" stroke-width="1.5"/><text x="60" y="105" fill="#ff6b6b" font-family="system-ui, sans-serif" font-size="6" text-anchor="middle">Form</text><circle cx="25" cy="60" r="10" fill="#1e1e1e" stroke="#10b981" stroke-width="1.5"/><text x="25" y="63" fill="#10b981" font-family="system-ui, sans-serif" font-size="6" text-anchor="middle">DB</text><path stroke="#41d1ff" d="M60 42V28" opacity=".5"/><path stroke="#bd34fe" d="M78 60h7" opacity=".5"/><path stroke="#ff6b6b" d="M60 78v14" opacity=".5"/><path stroke="#10b981" d="M42 60h-7" opacity=".5"/></svg>